<?xml version="1.0" encoding="UTF-8"?>
<svg id="Calque_1" xmlns="http://www.w3.org/2000/svg" viewBox="0 0 330.2 104.31">
  <defs>
    <style>
      .cls-1 {
        fill: #45b390;
      }

      .cls-2 {
        fill: #0f447f;
      }
    </style>
  </defs>
  <path class="cls-2" d="M153.14,53.8h9.19v17.63c-4.78,3.6-11.36,5.52-17.56,5.52-13.65,0-23.71-9.37-23.71-22.47s10.05-22.47,23.9-22.47c7.63,0,13.97,2.61,18.19,7.51l-6.45,5.96c-3.17-3.35-6.83-4.9-11.23-4.9-8.44,0-14.21,5.65-14.21,13.9s5.77,13.9,14.09,13.9c2.73,0,5.28-.5,7.82-1.86v-12.72Z"/>
  <path class="cls-2" d="M204.59,42.81v33.39h-9.19v-3.97c-2.54,2.92-6.27,4.47-10.37,4.47-8.38,0-14.27-4.72-14.27-15.02v-18.87h9.68v17.44c0,5.59,2.48,8.07,6.77,8.07s7.7-2.85,7.7-9v-16.51h9.68Z"/>
  <path class="cls-2" d="M213.58,30.15h9.68v46.05h-9.68V30.15Z"/>
  <path class="cls-2" d="M231.08,32.76c0-3.04,2.42-5.4,6.02-5.4s6.02,2.23,6.02,5.21c0,3.23-2.42,5.59-6.02,5.59s-6.02-2.36-6.02-5.4ZM232.26,42.81h9.68v33.39h-9.68v-33.39Z"/>
  <path class="cls-1" d="M261.68,40.83v11.48h20.11v8.07h-20.11v15.83h-10.05v-43.45h32.83v8.07h-22.78Z"/>
  <path class="cls-1" d="M288.8,32.76c0-3.04,2.42-5.4,6.02-5.4s6.02,2.23,6.02,5.21c0,3.23-2.42,5.59-6.02,5.59s-6.02-2.36-6.02-5.4ZM289.98,42.81h9.68v33.39h-9.68v-33.39Z"/>
  <path class="cls-1" d="M330.2,74.59c-1.99,1.43-4.9,2.11-7.88,2.11-7.88,0-12.48-4.04-12.48-11.98v-13.72h-5.15v-7.45h5.15v-8.13h9.68v8.13h8.32v7.45h-8.32v13.59c0,2.85,1.55,4.41,4.16,4.41,1.43,0,2.85-.43,3.91-1.24l2.61,6.83Z"/>
  <path class="cls-2" d="M86.85,13.05c3.35,2.94,6.29,6.36,8.86,9.99-.27.33-.72.46-1.12.53-1.62.29-11.65.31-13.13-.04-.98-.24-4.19-3.29-5.36-4.13C43.81-3.44,1.15,28.44,13.99,65.86c2.1,6.11,5.79,10.8,9.59,15.79l-.11,13.62-.47.47C11.99,88.17,3.81,76.27,1.13,63.07-8.82,14.19,49.37-19.88,86.85,13.05Z"/>
  <path class="cls-1" d="M46.61,104.3c-.58,0-1.17.03-1.75-.03-1.9-.2-5.25-.89-7.08-1.46-.93-.29-2.53-.76-2.74-1.77l-.07-41.48c-.06-.63.23-1.07.73-1.4l44.74.09c.64.5.13,2.1-.07,2.82-.39,1.43-3.55,8.43-4.75,8.78l-28.54.17c-.11.05-.48.43-.48.47v33.81Z"/>
  <path class="cls-1" d="M35.76,35.2c-.18.08-.73.51-.77.65v10.56l45.77.37v-11.71l-44.99.13Z"/>
  <path class="cls-2" d="M103.06,41.85c-.29-1.41-1.02-4.56-1.58-5.78-.36-.79-.92-1.07-1.78-1.06l-18.95.06v11.72l11.12.09c1.87,10.14-1.2,21.13-7.14,29.4-6.29,8.76-16.1,14.67-26.75,16.43-.68.41-.4.79-.4,1.27v10.32c17.14-1.41,32.84-12.63,40.66-27.79,5.46-10.58,7.21-22.95,4.83-34.66Z"/>
</svg>