<?xml version="1.0" encoding="UTF-8"?>
<svg id="Calque_1" xmlns="http://www.w3.org/2000/svg" viewBox="0 0 133.02 133.02">
  <defs>
    <style>
      .cls-1 {
        fill: #44b391;
      }

      .cls-2 {
        fill: #fff;
      }
    </style>
  </defs>
  <path class="cls-2" d="M133.02,66.51c0,36.73-29.78,66.51-66.51,66.51h0C29.78,133.02,0,103.24,0,66.51h0C0,29.78,29.78,0,66.51,0h0c36.73,0,66.51,29.78,66.51,66.51h0Z"/>
  <path class="cls-1" d="M66.27,23.89c-20.56.67-37.53,17.31-38.56,37.86-.37,7.4,1.26,14.4,4.44,20.48l-4.46,19.98c-.19.9.61,1.7,1.52,1.52l19.98-4.46h.01c6.03,3.15,12.96,4.79,20.31,4.45,20.51-.95,37.21-17.8,38-38.31.9-23.23-18.04-42.26-41.24-41.51ZM67.6,95.49c-5.81,0-11.25-1.57-15.94-4.31-.44-.25-.87-.51-1.28-.79l-12.77,3.4,3.4-12.77c-3.22-4.96-5.1-10.87-5.1-17.22,0-17.46,14.21-31.68,31.68-31.68s31.68,14.21,31.68,31.68-14.21,31.68-31.68,31.68Z"/>
  <path class="cls-1" d="M86.39,77.76c-.55.83-1.13,1.6-2.06,2.53-2.03,2.03-4.85,3.05-7.71,2.76-5.12-.52-12.4-3.36-18.66-9.6-6.26-6.26-9.09-13.53-9.6-18.66-.29-2.86.73-5.68,2.76-7.71.93-.93,1.7-1.51,2.53-2.07,1.53-1.04,3.62-.35,4.2,1.39l2.1,6.3c.58,1.73.32,2.82-.43,3.55l-1.67,1.69c-.83.83-.97,2.11-.33,3.11.93,1.45,2.67,3.77,5.87,6.97,3.2,3.2,5.52,4.94,6.97,5.87.99.64,2.28.5,3.11-.33l1.69-1.67c.73-.75,1.82-1.01,3.55-.43l6.3,2.1c1.74.58,2.43,2.67,1.38,4.2Z"/>
</svg>