<?xml version="1.0" encoding="UTF-8"?>
<svg id="Calque_1" xmlns="http://www.w3.org/2000/svg" viewBox="0 0 84.52 84.52">
  <defs>
    <style>
      .cls-1 {
        fill: #e11e1e;
      }
    </style>
  </defs>
  <path class="cls-1" d="M56.93,42.27l24.55-24.55c4.06-4.06,4.06-10.62,0-14.67-4.06-4.05-10.62-4.05-14.67,0l-24.55,24.55L17.71,3.04C13.66-1.01,7.09-1.01,3.04,3.04-1,7.1-1,13.67,3.04,17.71l24.55,24.55L3.04,66.8c-4.06,4.06-4.06,10.62,0,14.67,4.06,4.05,10.62,4.05,14.67,0l24.55-24.55,24.55,24.55c4.06,4.06,10.62,4.06,14.67,0,4.05-4.06,4.05-10.62,0-14.67l-24.55-24.55h0Z"/>
</svg>