<?xml version="1.0" encoding="UTF-8"?>
<svg id="Calque_1" xmlns="http://www.w3.org/2000/svg" viewBox="0 0 188.37 72.82">
  <path d="M93.63,51.19c-16.23-.02-32.11-4.71-45.76-13.5C34.23,28.9,23.39,16.38,16.66,1.61l3.53-1.61c8.56,18.84,24.03,33.68,43.21,41.43,19.19,7.76,40.62,7.84,59.87.24,19.25-7.6,34.84-22.31,43.54-41.09l3.51,1.63c-6.81,14.61-17.64,26.97-31.23,35.64-13.58,8.67-29.36,13.3-45.47,13.33h0Z"/>
  <path d="M91.69,49.24h3.88v23.57h-3.88v-23.57Z"/>
  <path d="M132.72,40.65l3.09-2.36,13.52,17.72-3.09,2.36-13.52-17.72Z"/>
  <path d="M38.85,56.54l13.74-18.02,3.09,2.36-13.74,18.02-3.09-2.36Z"/>
  <path d="M164.78,9.74l1.03-3.75,22.57,6.18-1.03,3.75-22.57-6.18Z"/>
  <path d="M0,14.33l22.63-6.19,1.02,3.75L1.02,18.08l-1.02-3.75Z"/>
</svg>