<?xml version="1.0" encoding="UTF-8"?>
<svg id="Calque_1" data-name="Calque 1" xmlns="http://www.w3.org/2000/svg" viewBox="0 0 59.98 59.98">
  <defs>
    <style>
      .cls-1 {
        fill: #fff;
      }

      .cls-2 {
        fill: #44b491;
      }
    </style>
  </defs>
  <path class="cls-1" d="M59.98,29.99c0,16.56-13.43,29.99-29.99,29.99h0C13.43,59.98,0,46.56,0,29.99h0C0,13.43,13.43,0,29.99,0h0c16.56,0,29.99,13.43,29.99,29.99h0Z"/>
  <path class="cls-2" d="M35.94,37.72v-14.86s1.68,2.79,7.73,2.96c.32,0,.59-.26.59-.58v-4.2c0-.31-.25-.56-.56-.58-4.7-.27-6.93-3.87-7.15-7.17-.02-.31-.29-.54-.6-.54h-4.79c-.32,0-.58.26-.58.58v23.62c0,2.57-1.96,4.8-4.52,4.92-2.93.14-5.31-2.38-4.95-5.35.26-2.1,1.94-3.82,4.04-4.11.42-.06.82-.06,1.22-.02.35.04.66-.22.66-.57v-4.21c0-.3-.23-.56-.53-.58-.6-.04-1.22-.03-1.84.05-4.62.52-8.35,4.26-8.86,8.88-.68,6.1,4.08,11.26,10.04,11.26,5.58,0,10.11-4.52,10.11-10.11"/>
</svg>