<?xml version="1.0" encoding="UTF-8"?>
<svg id="Calque_1" data-name="Calque 1" xmlns="http://www.w3.org/2000/svg" viewBox="0 0 59.98 59.98">
  <defs>
    <style>
      .cls-1 {
        fill: #fff;
      }

      .cls-2 {
        fill: #44b491;
      }
    </style>
  </defs>
  <path class="cls-1" d="M59.98,29.99c0,16.56-13.43,29.99-29.99,29.99h0C13.43,59.98,0,46.56,0,29.99h0C0,13.43,13.43,0,29.99,0h0c16.56,0,29.99,13.43,29.99,29.99h0Z"/>
  <path class="cls-2" d="M34.32,27.24l12.13-12.98h-4.61l-9.52,10.19-7.29-10.19h-12.6l12.76,17.82-12.76,13.64h4.61l10.15-10.85,7.77,10.85h12.6l-13.24-18.49ZM18.92,17.6h4.39l17.75,24.79h-4.39l-17.75-24.79Z"/>
</svg>