<?xml version="1.0" encoding="UTF-8"?>
<svg id="Calque_1" xmlns="http://www.w3.org/2000/svg" viewBox="0 0 367.2 116">
  <defs>
    <style>
      .cls-1 {
        fill: #45b390;
      }

      .cls-2 {
        fill: #fff;
      }
    </style>
  </defs>
  <path class="cls-2" d="M170.3,59.83h10.22v19.6c-5.31,4-12.63,6.14-19.53,6.14-15.18,0-26.37-10.42-26.37-24.98s11.18-24.99,26.57-24.99c8.49,0,15.53,2.9,20.22,8.35l-7.18,6.63c-3.52-3.73-7.59-5.45-12.49-5.45-9.39,0-15.81,6.28-15.81,15.46s6.42,15.46,15.67,15.46c3.04,0,5.87-.55,8.7-2.07v-14.15Z"/>
  <path class="cls-2" d="M227.51,47.61v37.13h-10.22v-4.42c-2.83,3.24-6.97,4.97-11.53,4.97-9.32,0-15.87-5.25-15.87-16.7v-20.98h10.77v19.39c0,6.21,2.76,8.97,7.52,8.97s8.56-3.17,8.56-10.01v-18.36h10.77Z"/>
  <path class="cls-2" d="M237.52,33.53h10.77v51.21h-10.77v-51.21Z"/>
  <path class="cls-2" d="M256.98,36.43c0-3.38,2.69-6.01,6.69-6.01s6.69,2.48,6.69,5.8c0,3.59-2.69,6.21-6.69,6.21s-6.69-2.62-6.69-6ZM258.29,47.61h10.77v37.13h-10.77v-37.13Z"/>
  <path class="cls-1" d="M291,45.4v12.77h22.36v8.97h-22.36v17.6h-11.18v-48.31h36.51v8.97h-25.33Z"/>
  <path class="cls-1" d="M321.16,36.43c0-3.38,2.69-6.01,6.69-6.01s6.69,2.48,6.69,5.8c0,3.59-2.69,6.21-6.69,6.21s-6.69-2.62-6.69-6ZM322.48,47.61h10.77v37.13h-10.77v-37.13Z"/>
  <path class="cls-1" d="M367.2,82.95c-2.21,1.59-5.45,2.35-8.77,2.35-8.77,0-13.87-4.49-13.87-13.32v-15.25h-5.73v-8.28h5.73v-9.04h10.77v9.04h9.25v8.28h-9.25v15.11c0,3.17,1.73,4.9,4.62,4.9,1.59,0,3.17-.48,4.35-1.38l2.9,7.59Z"/>
  <path class="cls-2" d="M96.59,14.51c3.72,3.27,6.99,7.08,9.86,11.11-.31.37-.8.51-1.25.59-1.8.32-12.96.34-14.6-.05-1.09-.26-4.66-3.66-5.97-4.59C48.72-3.83,1.28,31.63,15.56,73.24c2.33,6.79,6.44,12.01,10.66,17.56l-.12,15.15-.52.53c-12.25-8.43-21.35-21.66-24.33-36.35C-9.8,15.78,54.9-22.1,96.59,14.51Z"/>
  <path class="cls-1" d="M51.83,115.99c-.65,0-1.3.04-1.95-.03-2.12-.22-5.84-.98-7.87-1.62-1.03-.32-2.82-.84-3.05-1.96l-.07-46.13c-.07-.7.26-1.19.81-1.56l49.75.1c.71.56.14,2.34-.08,3.14-.44,1.59-3.95,9.37-5.28,9.76l-31.73.19c-.12.06-.53.48-.53.52v37.6Z"/>
  <path class="cls-1" d="M39.76,39.15c-.2.09-.82.57-.86.72v11.74l50.89.42v-13.03l-50.03.15Z"/>
  <path class="cls-2" d="M114.61,46.54c-.32-1.57-1.14-5.07-1.76-6.42-.4-.88-1.02-1.19-1.98-1.18l-21.07.06v13.04l12.36.1c2.08,11.28-1.34,23.49-7.94,32.7-6.99,9.75-17.9,16.31-29.74,18.27-.76.46-.44.88-.44,1.41v11.48c19.06-1.56,36.52-14.05,45.21-30.9,6.07-11.76,8.01-25.52,5.37-38.55Z"/>
</svg>