<?xml version="1.0" encoding="UTF-8"?>
<svg id="Calque_1" xmlns="http://www.w3.org/2000/svg" viewBox="0 0 262.84 205.27">
  <defs>
    <style>
      .cls-1 {
        fill: #45b390;
      }

      .cls-2 {
        fill: #fff;
      }
    </style>
  </defs>
  <path class="cls-2" d="M40.33,176.18h11.54v22.15c-6.01,4.52-14.27,6.94-22.07,6.94-17.16,0-29.8-11.78-29.8-28.24s12.64-28.24,30.03-28.24c9.59,0,17.55,3.28,22.85,9.44l-8.11,7.49c-3.98-4.21-8.58-6.16-14.12-6.16-10.61,0-17.86,7.1-17.86,17.47s7.25,17.47,17.71,17.47c3.43,0,6.63-.62,9.83-2.34v-15.99Z"/>
  <path class="cls-2" d="M104.98,162.37v41.96h-11.54v-4.99c-3.2,3.67-7.88,5.62-13.03,5.62-10.53,0-17.94-5.93-17.94-18.88v-23.71h12.17v21.92c0,7.02,3.12,10.14,8.5,10.14s9.67-3.59,9.67-11.31v-20.75h12.17Z"/>
  <path class="cls-2" d="M116.29,146.46h12.17v57.88h-12.17v-57.88Z"/>
  <path class="cls-2" d="M138.28,149.74c0-3.82,3.04-6.79,7.57-6.79s7.57,2.81,7.57,6.55c0,4.06-3.04,7.02-7.57,7.02s-7.57-2.96-7.57-6.78ZM139.77,162.37h12.17v41.96h-12.17v-41.96Z"/>
  <path class="cls-1" d="M176.74,159.88v14.43h25.27v10.14h-25.27v19.89h-12.64v-54.6h41.26v10.14h-28.63Z"/>
  <path class="cls-1" d="M210.82,149.74c0-3.82,3.04-6.79,7.57-6.79s7.57,2.81,7.57,6.55c0,4.06-3.04,7.02-7.57,7.02s-7.57-2.96-7.57-6.78ZM212.3,162.37h12.17v41.96h-12.17v-41.96Z"/>
  <path class="cls-1" d="M262.84,202.31c-2.5,1.79-6.16,2.65-9.91,2.65-9.91,0-15.68-5.07-15.68-15.06v-17.24h-6.47v-9.36h6.47v-10.22h12.17v10.22h10.45v9.36h-10.45v17.08c0,3.59,1.95,5.54,5.23,5.54,1.79,0,3.59-.55,4.91-1.56l3.28,8.58Z"/>
  <path class="cls-2" d="M179.84,16.4c4.21,3.7,7.9,8,11.14,12.56-.35.42-.9.58-1.41.67-2.04.36-14.64.39-16.5-.05-1.24-.3-5.27-4.14-6.74-5.18-40.58-28.72-94.19,11.35-78.05,58.38,2.63,7.67,7.28,13.57,12.05,19.85l-.14,17.12-.59.6c-13.85-9.53-24.12-24.48-27.5-41.07-12.49-61.43,60.63-104.24,107.74-62.86Z"/>
  <path class="cls-1" d="M129.26,131.08c-.73,0-1.47.04-2.2-.04-2.39-.25-6.6-1.11-8.9-1.83-1.17-.37-3.19-.95-3.45-2.22l-.08-52.13c-.08-.79.29-1.35.92-1.76l56.22.11c.8.63.16,2.64-.09,3.55-.5,1.8-4.46,10.59-5.97,11.03l-35.86.22c-.14.07-.6.54-.6.59v42.49Z"/>
  <path class="cls-1" d="M115.62,44.24c-.23.1-.92.65-.97.82v13.27l57.51.47v-14.72l-56.54.17Z"/>
  <path class="cls-2" d="M200.21,52.6c-.36-1.77-1.28-5.72-1.98-7.26-.45-1-1.15-1.35-2.24-1.34l-23.82.07v14.73l13.97.11c2.35,12.75-1.51,26.55-8.98,36.95-7.9,11.01-20.23,18.43-33.61,20.65-.86.51-.5.99-.5,1.59v12.97c21.54-1.77,41.27-15.87,51.1-34.92,6.86-13.29,9.06-28.84,6.07-43.56Z"/>
</svg>