<?xml version="1.0" encoding="UTF-8"?>
<svg id="Calque_1" data-name="Calque 1" xmlns="http://www.w3.org/2000/svg" viewBox="0 0 62.65 62.65">
  <defs>
    <style>
      .cls-1 {
        fill: #44b491;
      }
    </style>
  </defs>
  <path class="cls-1" d="M31.32,0C14.04,0,0,14.04,0,31.33s14.04,31.32,31.32,31.32,31.33-14.04,31.33-31.32S48.6,0,31.32,0ZM45.09,17.11c1.15,0,2.29.43,3.16,1.3,1.73,1.73,1.73,4.6,0,6.33l-18.98,18.98c-1.73,1.73-4.6,1.73-6.33,0l-8.44-8.44c-1.73-1.73-1.73-4.59,0-6.33,1.73-1.73,4.59-1.73,6.33,0l5.27,5.28,15.82-15.82c.87-.87,2.02-1.3,3.17-1.3h0Z"/>
</svg>