<?xml version="1.0" encoding="UTF-8"?>
<svg id="Calque_1" xmlns="http://www.w3.org/2000/svg" viewBox="0 0 121.65 67.97">
  <defs>
    <style>
      .cls-1 {
        fill: #44b391;
      }
    </style>
  </defs>
  <path class="cls-1" d="M39.53,27.22h42.42v13.53h-42.42v-13.53Z"/>
  <path class="cls-1" d="M30.11,0h-3.5C22.96,0,19.92,3.5,19.92,7.76v52.46c0,4.26,3.04,7.76,6.69,7.76h3.5c3.65,0,6.69-3.5,6.69-7.76V7.6c0-4.26-3.04-7.6-6.69-7.6h0Z"/>
  <path class="cls-1" d="M10.19,11.26h-3.5c-3.65,0-6.69,3.8-6.69,8.21v28.74c0,4.56,3.04,8.21,6.69,8.21h3.5c3.65,0,6.69-3.8,6.69-8.21v-28.58c.15-4.56-2.89-8.36-6.69-8.36h0Z"/>
  <path class="cls-1" d="M95.04,0h-3.5c-3.65,0-6.69,3.5-6.69,7.76v52.46c0,4.26,3.04,7.76,6.69,7.76h3.5c3.65,0,6.69-3.5,6.69-7.76V7.6c.15-4.26-2.89-7.6-6.69-7.6h0Z"/>
  <path class="cls-1" d="M114.96,11.26h-3.5c-3.65,0-6.69,3.8-6.69,8.21v28.74c0,4.56,3.04,8.21,6.69,8.21h3.5c3.65,0,6.69-3.8,6.69-8.21v-28.58c0-4.56-3.04-8.36-6.69-8.36h0Z"/>
</svg>