<?xml version="1.0" encoding="UTF-8"?>
<svg id="Calque_1" data-name="Calque 1" xmlns="http://www.w3.org/2000/svg" xmlns:xlink="http://www.w3.org/1999/xlink" viewBox="0 0 61.65 67.37">
  <defs>
    <style>
      .cls-1 {
        fill: none;
      }

      .cls-2 {
        fill: #44b491;
      }

      .cls-3 {
        clip-path: url(#clippath);
      }
    </style>
    <clipPath id="clippath">
      <rect class="cls-1" width="61.65" height="67.37"/>
    </clipPath>
  </defs>
  <g class="cls-3">
    <g id="Groupe_104" data-name="Groupe 104">
      <path id="Tracé_77" data-name="Tracé 77" class="cls-2" d="M33.56,19.2h4.37c1.99,0,3.61,1.62,3.62,3.62v29.11c0,.62-.5,1.12-1.12,1.12h-9.36c-.62,0-1.12-.5-1.12-1.12h0v-29.11c0-2,1.62-3.62,3.62-3.62ZM44.92,17.36h-1.72c-.81.04-1.61-.17-2.3-.6-.38-.26-.68-.61-.87-1.03-.17-.37-.25-.77-.25-1.18.03-.89.32-1.75.83-2.48l7.42-10.74c.2-.29.46-.54.75-.75,1.17-.78,2.7-.78,3.87,0,.29.2.55.45.75.75l7.41,10.74c.51.73.79,1.59.83,2.48,0,.41-.08.81-.25,1.18-.19.42-.49.77-.87,1.03-.69.43-1.49.64-2.3.6h-1.71v34.57c0,.62-.5,1.12-1.12,1.12h-9.36c-.62,0-1.12-.5-1.12-1.12h0V17.36h0ZM43.23,55.84c2.12,0,3.84,1.72,3.85,3.85v.8h8.32c.62,0,1.12.5,1.12,1.12s-.5,1.12-1.12,1.12h-8.33v.79c0,2.12-1.72,3.84-3.84,3.84-1.02,0-2-.41-2.72-1.13l-.07-.07c-.68-.71-1.06-1.66-1.06-2.64v-.8H1.12c-.62,0-1.12-.5-1.12-1.12s.5-1.12,1.12-1.12h38.27v-.8c0-2.12,1.72-3.84,3.85-3.85h0ZM3.62,32.51h4.37c.96,0,1.88.38,2.55,1.06l.07.07c.64.67,1,1.56,1,2.48v15.8c0,.62-.5,1.12-1.12,1.12H1.13c-.62,0-1.12-.5-1.13-1.12v-15.8c0-2,1.62-3.62,3.62-3.62h0ZM18.59,25.85h4.37c1.99,0,3.61,1.62,3.62,3.62v22.46c0,.62-.5,1.12-1.12,1.12h-9.36c-.62,0-1.12-.5-1.12-1.12h0v-22.46c0-1.99,1.62-3.61,3.62-3.62h0Z"/>
    </g>
  </g>
</svg>