<?xml version="1.0" encoding="UTF-8"?>
<svg id="Calque_1" data-name="Calque 1" xmlns="http://www.w3.org/2000/svg" viewBox="0 0 56.64 56.64">
  <defs>
    <style>
      .cls-1 {
        fill: #44b491;
      }
    </style>
  </defs>
  <path class="cls-1" d="M55.6,26.64h-4.71c-.84-11.12-9.76-20-20.89-20.8V1.04c0-.58-.47-1.04-1.04-1.04h-1.28c-.58,0-1.04.47-1.04,1.04v4.8C15.56,6.69,6.7,15.55,5.86,26.64H1.04c-.58,0-1.04.47-1.04,1.04v1.28c0,.58.47,1.04,1.04,1.04h4.81c.81,11.12,9.68,20.02,20.79,20.87v4.72c0,.58.47,1.04,1.04,1.04h1.28c.58,0,1.04-.47,1.04-1.04v-4.72c11.16-.8,20.08-9.72,20.89-20.88h4.7c.58,0,1.04-.47,1.04-1.04v-1.28c0-.58-.47-1.04-1.04-1.04ZM47.53,26.64h-8.48c-.74-4.62-4.41-8.26-9.04-8.96v-8.47c9.28.78,16.7,8.17,17.52,17.43ZM26.64,25.63c-.4.26-.74.6-1,1h-4.51c.65-2.72,2.79-4.87,5.51-5.52v4.52ZM25.6,30c.26.44.61.81,1.04,1.08v4.52c-2.75-.66-4.91-2.84-5.53-5.6h4.49ZM30,31.15c.47-.28.87-.67,1.15-1.14h4.49c-.63,2.8-2.84,5-5.64,5.63v-4.49ZM31.11,26.64c-.28-.44-.66-.8-1.11-1.06v-4.49c2.77.62,4.96,2.79,5.62,5.55h-4.51ZM26.64,9.21v8.48c-4.58.74-8.2,4.36-8.93,8.95h-8.48c.82-9.23,8.19-16.6,17.42-17.43ZM9.22,30h8.47c.71,4.62,4.34,8.28,8.95,9.02v8.48c-9.26-.83-16.63-8.24-17.42-17.51ZM30,47.52v-8.47c4.66-.71,8.34-4.39,9.05-9.04h8.47c-.79,9.3-8.22,16.73-17.53,17.51Z"/>
</svg>