<?xml version="1.0" encoding="UTF-8"?>
<svg id="Calque_1" data-name="Calque 1" xmlns="http://www.w3.org/2000/svg" viewBox="0 0 52.17 52.17">
  <defs>
    <style>
      .cls-1 {
        fill: #44b491;
      }
    </style>
  </defs>
  <path class="cls-1" d="M51.21,24.54h-4.34c-.78-10.24-8.99-18.42-19.24-19.16V.96c0-.53-.43-.96-.96-.96h-1.18c-.53,0-.96.43-.96.96v4.42C14.33,6.17,6.17,14.33,5.4,24.54H.96c-.53,0-.96.43-.96.96v1.18c0,.53.43.96.96.96h4.43c.74,10.24,8.91,18.44,19.15,19.23v4.35c0,.53.43.96.96.96h1.18c.53,0,.96-.43.96-.96v-4.34c10.28-.74,18.5-8.95,19.24-19.23h4.33c.53,0,.96-.43.96-.96v-1.18c0-.53-.43-.96-.96-.96ZM43.78,24.54h-7.81c-.68-4.25-4.06-7.61-8.33-8.25v-7.8c8.55.72,15.38,7.52,16.14,16.06ZM24.54,23.61c-.37.24-.68.55-.92.92h-4.16c.6-2.51,2.57-4.48,5.08-5.09v4.16ZM23.58,27.64c.24.4.56.75.96,1v4.16c-2.53-.61-4.52-2.62-5.09-5.16h4.14ZM27.64,28.69c.44-.26.8-.62,1.06-1.05h4.14c-.58,2.58-2.62,4.61-5.19,5.18v-4.13ZM28.66,24.54c-.26-.4-.61-.74-1.02-.98v-4.13c2.55.57,4.57,2.57,5.17,5.11h-4.16ZM24.54,8.48v7.81c-4.22.69-7.55,4.02-8.23,8.24h-7.81c.76-8.5,7.54-15.29,16.04-16.05ZM8.49,27.64h7.81c.65,4.26,4,7.62,8.24,8.31v7.81c-8.53-.77-15.32-7.59-16.05-16.13ZM27.64,43.77v-7.8c4.29-.65,7.68-4.04,8.34-8.33h7.81c-.73,8.57-7.57,15.41-16.15,16.13Z"/>
</svg>