<?xml version="1.0" encoding="UTF-8"?>
<svg id="Calque_1" xmlns="http://www.w3.org/2000/svg" viewBox="0 0 64.28 50.69">
  <defs>
    <style>
      .cls-1 {
        fill-rule: evenodd;
      }
    </style>
  </defs>
  <path class="cls-1" d="M32.14,0c-.61,0-1.11.5-1.1,1.11h0v11.04c0,.61.5,1.1,1.1,1.1.61,0,1.11-.49,1.11-1.1h0V1.11c0-.61-.49-1.11-1.1-1.11,0,0,0,0,0,0ZM1.11,10c-.29,0-.57.11-.78.32-.43.43-.44,1.13,0,1.57,0,0,0,0,0,0l7.78,7.81c.43.43,1.13.44,1.57,0,0,0,0,0,0,0,.43-.43.43-1.13,0-1.56L1.89,10.33c-.21-.21-.49-.33-.78-.33ZM63.17,10c-.29,0-.57.12-.78.33l-7.79,7.81c-.43.43-.43,1.13,0,1.56.43.43,1.13.44,1.57,0,0,0,0,0,0,0l7.78-7.81c.43-.43.44-1.13,0-1.57,0,0,0,0,0,0-.21-.21-.49-.32-.78-.32ZM32.14,16.68C14.54,16.68.7,32.96.7,32.96c-.36.42-.36,1.03,0,1.45,0,0,13.84,16.28,31.43,16.28,17.6,0,31.44-16.28,31.44-16.28.36-.42.36-1.03,0-1.45,0,0-13.85-16.28-31.44-16.28ZM32.14,18.9c15.45,0,27.77,13.48,28.95,14.79-1.18,1.32-13.5,14.79-28.95,14.79S4.38,35.01,3.2,33.69c1.18-1.31,13.49-14.79,28.94-14.79ZM32.14,22c-6.54,0-11.88,5.23-11.88,11.69s5.34,11.69,11.88,11.69,11.89-5.24,11.89-11.69-5.35-11.69-11.89-11.69ZM32.14,24.21c5.36,0,9.67,4.24,9.67,9.48s-4.31,9.48-9.67,9.48-9.66-4.25-9.66-9.48,4.3-9.48,9.66-9.48ZM32.14,28.31c-2.99,0-5.46,2.41-5.46,5.38s2.46,5.38,5.46,5.38,5.47-2.41,5.47-5.38-2.47-5.38-5.47-5.38ZM32.05,30.53s.06,0,.08,0c1.82,0,3.25,1.41,3.25,3.16s-1.43,3.16-3.25,3.16-3.24-1.42-3.24-3.16,1.38-3.12,3.15-3.16Z"/>
</svg>