<?xml version="1.0" encoding="UTF-8"?>
<svg id="Calque_1" data-name="Calque 1" xmlns="http://www.w3.org/2000/svg" viewBox="0 0 59.98 59.98">
  <defs>
    <style>
      .cls-1 {
        fill: #fff;
      }

      .cls-2 {
        fill: #44b491;
      }
    </style>
  </defs>
  <path class="cls-1" d="M59.98,29.99c0,16.56-13.43,29.99-29.99,29.99h0C13.43,59.98,0,46.56,0,29.99h0C0,13.43,13.43,0,29.99,0h0c16.56,0,29.99,13.43,29.99,29.99h0Z"/>
  <path class="cls-2" d="M38.13,14.26h-16.27c-4.19,0-7.59,3.4-7.59,7.59v16.27c0,4.19,3.4,7.59,7.59,7.59h16.27c4.19,0,7.59-3.4,7.59-7.59v-16.27c0-4.19-3.4-7.59-7.59-7.59ZM43.01,37.59c0,2.99-2.43,5.42-5.42,5.42h-15.19c-2.99,0-5.42-2.43-5.42-5.42v-15.19c0-2.99,2.43-5.42,5.42-5.42h15.19c2.99,0,5.42,2.43,5.42,5.42v15.19Z"/>
  <path class="cls-2" d="M30.01,21.85c-4.49,0-8.14,3.65-8.14,8.14s3.65,8.14,8.14,8.14,8.14-3.65,8.14-8.14-3.65-8.14-8.14-8.14ZM30.01,35.42c-2.99,0-5.42-2.44-5.42-5.42s2.44-5.42,5.42-5.42,5.42,2.44,5.42,5.42-2.44,5.42-5.42,5.42Z"/>
  <circle class="cls-2" cx="38.69" cy="21.31" r="1.63"/>
</svg>