<?xml version="1.0" encoding="UTF-8"?>
<svg id="Calque_1" xmlns="http://www.w3.org/2000/svg" viewBox="0 0 145.25 105.36">
  <defs>
    <style>
      .cls-1 {
        fill: #44b391;
      }
    </style>
  </defs>
  <path class="cls-1" d="M145.25,25.06c0,3.58-.51,13.3-2.05,29.66h-2.05v50.63h-7.16v-50.63h-1.02V0c9.21,1.53,12.27,13.81,12.27,25.06ZM126.84,52.68c0,46.03-55.24,68.53-87.97,36.31C6.65,56.26,29.66,1.02,75.69,1.02c28.13,0,51.14,23.02,51.14,51.66ZM24.55,27.62c0,8.69-8.69,9.21-8.69,14.32v63.42h-7.16v-63.42c0-5.11-8.69-5.63-8.69-14.32C0,17.9,2.05,8.69,6.14,0v23.53h4.09V0h4.09v23.53h3.58V0c4.6,8.69,6.65,17.9,6.65,27.62ZM113.03,52.68c0-33.76-40.4-50.12-63.93-26.6-23.53,23.53-7.16,63.93,26.08,63.93,20.97,0,37.85-16.88,37.85-37.34ZM108.94,52.68c0,44.5-67,44.5-67,0,0-30.18,36.31-45.01,57.28-24.04,6.65,6.65,9.72,14.83,9.72,24.04Z"/>
</svg>