<?xml version="1.0" encoding="UTF-8"?>
<svg id="Calque_1" data-name="Calque 1" xmlns="http://www.w3.org/2000/svg" viewBox="0 0 64.45 59.45">
  <defs>
    <style>
      .cls-1 {
        fill: #44b491;
      }
    </style>
  </defs>
  <path class="cls-1" d="M30.69,30.47c-.13-.6-2.23-9.99-6.25-12.1-1.34-.7-2.59-.64-2.59-.64-1.72.07-3.22,1.14-3.93,2.23-1.56,2.43-.66,4.83.22,7.08,1.73,4.45,3.47,8.89,5.2,13.33.58,1.48,1.23,3.06,2.55,3.95,1.75,1.18,4.2.74,5.92-.47,1.73-1.2,2.91-3.02,4.07-4.79.68-1.03,1.37-2.05,2.06-3.08,2.32-3.4,4.74-6.73,7.25-10.01,2.51-3.26,5.11-6.46,7.79-9.59,2.68-3.13,5.45-6.17,8.31-9.14.72-.74,1.43-1.48,2.16-2.22.14-.14,1.04-.88.98-1.06-.06-.18-1.1.13-1.27.16-1.85.42-3.64,1.09-5.35,1.93-3.45,1.68-6.54,4.01-9.47,6.46-6.44,5.39-12.33,11.45-17.66,17.93h0Z"/>
  <path class="cls-1" d="M8.71,50.74c2.73,2.73,5.9,4.87,9.45,6.37,3.67,1.55,7.56,2.34,11.57,2.34s7.9-.79,11.57-2.34c3.54-1.5,6.72-3.64,9.45-6.37,2.73-2.73,4.87-5.9,6.37-9.45,1.55-3.67,2.34-7.56,2.34-11.57s-.79-7.9-2.34-11.57c-.19-.46-.39-.91-.61-1.35-.43.5-.87,1-1.3,1.5-.97,1.14-1.95,2.3-2.91,3.46.89,2.5,1.36,5.18,1.36,7.97,0,13.19-10.73,23.93-23.93,23.93S5.8,42.92,5.8,29.73,16.53,5.8,29.72,5.8c5.87,0,11.26,2.13,15.43,5.66.44-.38.89-.76,1.34-1.14.96-.81,2.05-1.68,3.24-2.58-2.49-2.27-5.32-4.08-8.43-5.41-3.67-1.55-7.56-2.34-11.57-2.34s-7.9.79-11.57,2.34c-3.54,1.5-6.72,3.64-9.45,6.37-2.73,2.73-4.87,5.9-6.37,9.45-1.55,3.66-2.34,7.56-2.34,11.57s.79,7.9,2.34,11.57c1.5,3.54,3.64,6.72,6.37,9.45h0Z"/>
</svg>