<?xml version="1.0" encoding="UTF-8"?>
<svg id="Calque_1" xmlns="http://www.w3.org/2000/svg" viewBox="0 0 595.28 841.89">
  <defs>
    <style>
      .cls-1 {
        fill: #1d1d1b;
      }

      .cls-1, .cls-2 {
        opacity: .5;
      }

      .cls-3 {
        fill: #fff;
      }

      .cls-4 {
        fill: #0e447e;
      }

      .cls-5 {
        fill: #44b491;
      }
    </style>
  </defs>
  <rect class="cls-3" width="595.28" height="420.94"/>
  <rect class="cls-4" y="420.94" width="595.28" height="420.94"/>
  <g>
    <path class="cls-4" d="M206.54,229.3h11.54v22.15c-6.01,4.52-14.27,6.94-22.07,6.94-17.16,0-29.8-11.78-29.8-28.24s12.64-28.24,30.03-28.24c9.59,0,17.55,3.28,22.85,9.44l-8.11,7.49c-3.98-4.21-8.58-6.16-14.12-6.16-10.61,0-17.86,7.1-17.86,17.47s7.25,17.47,17.71,17.47c3.43,0,6.63-.62,9.83-2.34v-15.99Z"/>
    <path class="cls-4" d="M271.2,215.49v41.96h-11.54v-4.99c-3.2,3.67-7.88,5.62-13.03,5.62-10.53,0-17.94-5.93-17.94-18.88v-23.71h12.17v21.92c0,7.02,3.12,10.14,8.5,10.14s9.67-3.59,9.67-11.31v-20.75h12.17Z"/>
    <path class="cls-4" d="M282.51,199.58h12.17v57.88h-12.17v-57.88Z"/>
    <path class="cls-4" d="M304.5,202.85c0-3.82,3.04-6.79,7.57-6.79s7.57,2.81,7.57,6.55c0,4.06-3.04,7.02-7.57,7.02s-7.57-2.96-7.57-6.78ZM305.98,215.49h12.17v41.96h-12.17v-41.96Z"/>
    <path class="cls-5" d="M342.95,212.99v14.43h25.27v10.14h-25.27v19.89h-12.64v-54.6h41.26v10.14h-28.63Z"/>
    <path class="cls-5" d="M377.04,202.85c0-3.82,3.04-6.79,7.57-6.79s7.57,2.81,7.57,6.55c0,4.06-3.04,7.02-7.57,7.02s-7.57-2.96-7.57-6.78ZM378.52,215.49h12.17v41.96h-12.17v-41.96Z"/>
    <path class="cls-5" d="M429.06,255.43c-2.5,1.79-6.16,2.65-9.91,2.65-9.91,0-15.68-5.07-15.68-15.06v-17.24h-6.47v-9.36h6.47v-10.22h12.17v10.22h10.45v9.36h-10.45v17.08c0,3.59,1.95,5.54,5.23,5.54,1.79,0,3.59-.55,4.91-1.56l3.28,8.58Z"/>
    <path class="cls-4" d="M346.05,69.52c4.21,3.7,7.9,8,11.14,12.56-.35.42-.9.58-1.41.67-2.04.36-14.64.39-16.5-.05-1.24-.3-5.27-4.14-6.74-5.18-40.58-28.72-94.19,11.35-78.05,58.38,2.63,7.67,7.28,13.57,12.05,19.85l-.14,17.12-.59.6c-13.85-9.53-24.12-24.48-27.5-41.07-12.49-61.43,60.63-104.24,107.74-62.86Z"/>
    <path class="cls-5" d="M295.48,184.19c-.73,0-1.47.04-2.2-.04-2.39-.25-6.6-1.11-8.9-1.83-1.17-.37-3.19-.95-3.45-2.22l-.08-52.13c-.08-.79.29-1.35.92-1.76l56.22.11c.8.63.16,2.64-.09,3.55-.5,1.8-4.46,10.59-5.97,11.03l-35.86.22c-.14.07-.6.54-.6.59v42.49Z"/>
    <path class="cls-5" d="M281.84,97.36c-.23.1-.92.65-.97.82v13.27l57.51.47v-14.72l-56.54.17Z"/>
    <path class="cls-4" d="M366.43,105.71c-.36-1.77-1.28-5.72-1.98-7.26-.45-1-1.15-1.35-2.24-1.34l-23.82.07v14.73l13.97.11c2.35,12.75-1.51,26.55-8.98,36.95-7.9,11.01-20.23,18.43-33.61,20.65-.86.51-.5.99-.5,1.59v12.97c21.54-1.77,41.27-15.87,51.1-34.92,6.86-13.29,9.06-28.84,6.07-43.56Z"/>
  </g>
  <g>
    <path class="cls-4" d="M291.94,348.58h4.38v8.4c-2.28,1.72-5.41,2.63-8.37,2.63-6.5,0-11.3-4.46-11.3-10.7s4.79-10.7,11.38-10.7c3.64,0,6.65,1.24,8.66,3.58l-3.08,2.84c-1.51-1.6-3.25-2.34-5.35-2.34-4.02,0-6.77,2.69-6.77,6.62s2.75,6.62,6.71,6.62c1.3,0,2.51-.24,3.73-.89v-6.06Z"/>
    <path class="cls-4" d="M316.45,343.34v15.91h-4.38v-1.89c-1.21,1.39-2.99,2.13-4.94,2.13-3.99,0-6.8-2.25-6.8-7.16v-8.99h4.61v8.31c0,2.66,1.18,3.84,3.22,3.84s3.67-1.36,3.67-4.29v-7.87h4.61Z"/>
    <path class="cls-4" d="M320.74,337.31h4.61v21.94h-4.61v-21.94Z"/>
    <path class="cls-4" d="M329.07,338.55c0-1.45,1.15-2.57,2.87-2.57s2.87,1.06,2.87,2.48c0,1.54-1.15,2.66-2.87,2.66s-2.87-1.12-2.87-2.57ZM329.63,343.34h4.61v15.91h-4.61v-15.91Z"/>
    <path class="cls-5" d="M343.65,342.4v5.47h9.58v3.84h-9.58v7.54h-4.79v-20.7h15.64v3.84h-10.85Z"/>
    <path class="cls-5" d="M356.57,338.55c0-1.45,1.15-2.57,2.87-2.57s2.87,1.06,2.87,2.48c0,1.54-1.15,2.66-2.87,2.66s-2.87-1.12-2.87-2.57ZM357.13,343.34h4.61v15.91h-4.61v-15.91Z"/>
    <path class="cls-5" d="M376.29,358.48c-.95.68-2.34,1.01-3.76,1.01-3.76,0-5.94-1.92-5.94-5.71v-6.53h-2.45v-3.55h2.45v-3.87h4.61v3.87h3.96v3.55h-3.96v6.48c0,1.36.74,2.1,1.98,2.1.68,0,1.36-.21,1.86-.59l1.24,3.25Z"/>
    <path class="cls-4" d="M260.36,329.16c1.59,1.4,3,3.03,4.22,4.76-.13.16-.34.22-.53.25-.77.14-5.55.15-6.25-.02-.47-.11-2-1.57-2.56-1.97-15.38-10.89-35.71,4.3-29.59,22.13,1,2.91,2.76,5.14,4.57,7.52l-.05,6.49-.22.23c-5.25-3.61-9.14-9.28-10.42-15.57-4.74-23.29,22.98-39.52,40.84-23.83Z"/>
    <path class="cls-5" d="M241.19,372.63c-.28,0-.56.02-.83-.01-.91-.09-2.5-.42-3.37-.7-.44-.14-1.21-.36-1.31-.84l-.03-19.76c-.03-.3.11-.51.35-.67l21.31.04c.3.24.06,1-.03,1.34-.19.68-1.69,4.01-2.26,4.18l-13.59.08c-.05.02-.23.2-.23.22v16.11Z"/>
    <path class="cls-5" d="M236.02,339.72c-.09.04-.35.24-.37.31v5.03l21.8.18v-5.58l-21.43.06Z"/>
    <path class="cls-4" d="M268.08,342.88c-.14-.67-.49-2.17-.75-2.75-.17-.38-.44-.51-.85-.51l-9.03.03v5.58l5.3.04c.89,4.83-.57,10.06-3.4,14.01-3,4.17-7.67,6.99-12.74,7.83-.33.2-.19.38-.19.6v4.92c8.17-.67,15.64-6.02,19.37-13.24,2.6-5.04,3.43-10.93,2.3-16.51Z"/>
  </g>
  <path class="cls-1" d="M73.67,42.78h2.58v4.95c-1.34,1.01-3.19,1.55-4.93,1.55-3.83,0-6.66-2.63-6.66-6.31s2.82-6.31,6.71-6.31c2.14,0,3.92.73,5.11,2.11l-1.81,1.67c-.89-.94-1.92-1.38-3.16-1.38-2.37,0-3.99,1.59-3.99,3.9s1.62,3.9,3.96,3.9c.77,0,1.48-.14,2.2-.52v-3.57Z"/>
  <path class="cls-1" d="M88.12,39.7v9.38h-2.58v-1.12c-.71.82-1.76,1.26-2.91,1.26-2.35,0-4.01-1.33-4.01-4.22v-5.3h2.72v4.9c0,1.57.7,2.27,1.9,2.27s2.16-.8,2.16-2.53v-4.64h2.72Z"/>
  <path class="cls-1" d="M90.65,36.14h2.72v12.93h-2.72v-12.93Z"/>
  <path class="cls-1" d="M95.57,36.87c0-.85.68-1.52,1.69-1.52s1.69.63,1.69,1.46c0,.91-.68,1.57-1.69,1.57s-1.69-.66-1.69-1.52ZM95.9,39.7h2.72v9.38h-2.72v-9.38Z"/>
  <path class="cls-1" d="M104.16,39.14v3.23h5.65v2.27h-5.65v4.45h-2.82v-12.2h9.22v2.27h-6.4Z"/>
  <path class="cls-1" d="M111.78,36.87c0-.85.68-1.52,1.69-1.52s1.69.63,1.69,1.46c0,.91-.68,1.57-1.69,1.57s-1.69-.66-1.69-1.52ZM112.11,39.7h2.72v9.38h-2.72v-9.38Z"/>
  <path class="cls-1" d="M123.4,48.62c-.56.4-1.38.59-2.21.59-2.21,0-3.5-1.13-3.5-3.36v-3.85h-1.45v-2.09h1.45v-2.28h2.72v2.28h2.34v2.09h-2.34v3.82c0,.8.44,1.24,1.17,1.24.4,0,.8-.12,1.1-.35l.73,1.92Z"/>
  <path class="cls-1" d="M55.06,31.34c.94.83,1.77,1.79,2.49,2.81-.08.09-.2.13-.31.15-.46.08-3.27.09-3.69-.01-.28-.07-1.18-.93-1.51-1.16-9.07-6.42-21.05,2.54-17.44,13.05.59,1.72,1.63,3.03,2.69,4.44l-.03,3.83-.13.13c-3.09-2.13-5.39-5.47-6.15-9.18-2.79-13.73,13.55-23.3,24.08-14.05Z"/>
  <path class="cls-1" d="M43.75,56.97c-.16,0-.33,0-.49,0-.53-.06-1.47-.25-1.99-.41-.26-.08-.71-.21-.77-.5l-.02-11.65c-.02-.18.06-.3.21-.39l12.56.03c.18.14.04.59-.02.79-.11.4-1,2.37-1.33,2.46l-8.01.05s-.13.12-.13.13v9.5Z"/>
  <path class="cls-1" d="M40.71,37.56c-.05.02-.21.14-.22.18v2.97l12.85.1v-3.29l-12.64.04Z"/>
  <path class="cls-1" d="M59.61,39.43c-.08-.4-.29-1.28-.44-1.62-.1-.22-.26-.3-.5-.3l-5.32.02v3.29l3.12.03c.53,2.85-.34,5.93-2.01,8.26-1.77,2.46-4.52,4.12-7.51,4.61-.19.12-.11.22-.11.36v2.9c4.81-.39,9.22-3.55,11.42-7.8,1.53-2.97,2.02-6.44,1.36-9.74Z"/>
  <path class="cls-3" d="M206.54,650.24h11.54v22.15c-6.01,4.52-14.27,6.94-22.07,6.94-17.16,0-29.8-11.78-29.8-28.24s12.64-28.24,30.03-28.24c9.59,0,17.55,3.28,22.85,9.44l-8.11,7.49c-3.98-4.21-8.58-6.16-14.12-6.16-10.61,0-17.86,7.1-17.86,17.47s7.25,17.47,17.71,17.47c3.43,0,6.63-.62,9.83-2.34v-15.99Z"/>
  <path class="cls-3" d="M271.2,636.44v41.96h-11.54v-4.99c-3.2,3.67-7.88,5.62-13.03,5.62-10.53,0-17.94-5.93-17.94-18.88v-23.71h12.17v21.92c0,7.02,3.12,10.14,8.5,10.14s9.67-3.59,9.67-11.31v-20.75h12.17Z"/>
  <path class="cls-3" d="M282.51,620.52h12.17v57.88h-12.17v-57.88Z"/>
  <path class="cls-3" d="M304.5,623.8c0-3.82,3.04-6.79,7.57-6.79s7.57,2.81,7.57,6.55c0,4.06-3.04,7.02-7.57,7.02s-7.57-2.96-7.57-6.78ZM305.98,636.44h12.17v41.96h-12.17v-41.96Z"/>
  <path class="cls-5" d="M342.95,633.94v14.43h25.27v10.14h-25.27v19.89h-12.64v-54.6h41.26v10.14h-28.63Z"/>
  <path class="cls-5" d="M377.04,623.8c0-3.82,3.04-6.79,7.57-6.79s7.57,2.81,7.57,6.55c0,4.06-3.04,7.02-7.57,7.02s-7.57-2.96-7.57-6.78ZM378.52,636.44h12.17v41.96h-12.17v-41.96Z"/>
  <path class="cls-5" d="M429.06,676.37c-2.5,1.79-6.16,2.65-9.91,2.65-9.91,0-15.68-5.07-15.68-15.06v-17.24h-6.47v-9.36h6.47v-10.22h12.17v10.22h10.45v9.36h-10.45v17.08c0,3.59,1.95,5.54,5.23,5.54,1.79,0,3.59-.55,4.91-1.56l3.28,8.58Z"/>
  <path class="cls-3" d="M346.05,490.46c4.21,3.7,7.9,8,11.14,12.56-.35.42-.9.58-1.41.67-2.04.36-14.64.39-16.5-.05-1.24-.3-5.27-4.14-6.74-5.18-40.58-28.72-94.19,11.35-78.05,58.38,2.63,7.67,7.28,13.57,12.05,19.85l-.14,17.12-.59.6c-13.85-9.53-24.12-24.48-27.5-41.07-12.49-61.43,60.63-104.24,107.74-62.86Z"/>
  <path class="cls-5" d="M295.48,605.14c-.73,0-1.47.04-2.2-.04-2.39-.25-6.6-1.11-8.9-1.83-1.17-.37-3.19-.95-3.45-2.22l-.08-52.13c-.08-.79.29-1.35.92-1.76l56.22.11c.8.63.16,2.64-.09,3.55-.5,1.8-4.46,10.59-5.97,11.03l-35.86.22c-.14.07-.6.54-.6.59v42.49Z"/>
  <path class="cls-5" d="M281.84,518.3c-.23.1-.92.65-.97.82v13.27l57.51.47v-14.72l-56.54.17Z"/>
  <path class="cls-3" d="M366.43,526.66c-.36-1.77-1.28-5.72-1.98-7.26-.45-1-1.15-1.35-2.24-1.34l-23.82.07v14.73l13.97.11c2.35,12.75-1.51,26.55-8.98,36.95-7.9,11.01-20.23,18.43-33.61,20.65-.86.51-.5.99-.5,1.59v12.97c21.54-1.77,41.27-15.87,51.1-34.92,6.86-13.29,9.06-28.84,6.07-43.56Z"/>
  <path class="cls-3" d="M291.94,769.52h4.38v8.4c-2.28,1.72-5.41,2.63-8.37,2.63-6.5,0-11.3-4.46-11.3-10.7s4.79-10.7,11.38-10.7c3.64,0,6.65,1.24,8.66,3.58l-3.08,2.84c-1.51-1.6-3.25-2.34-5.35-2.34-4.02,0-6.77,2.69-6.77,6.62s2.75,6.62,6.71,6.62c1.3,0,2.51-.24,3.73-.89v-6.06Z"/>
  <path class="cls-3" d="M316.45,764.29v15.91h-4.38v-1.89c-1.21,1.39-2.99,2.13-4.94,2.13-3.99,0-6.8-2.25-6.8-7.16v-8.99h4.61v8.31c0,2.66,1.18,3.84,3.22,3.84s3.67-1.36,3.67-4.29v-7.87h4.61Z"/>
  <path class="cls-3" d="M320.74,758.25h4.61v21.94h-4.61v-21.94Z"/>
  <path class="cls-3" d="M329.07,759.5c0-1.45,1.15-2.57,2.87-2.57s2.87,1.06,2.87,2.48c0,1.54-1.15,2.66-2.87,2.66s-2.87-1.12-2.87-2.57ZM329.63,764.29h4.61v15.91h-4.61v-15.91Z"/>
  <path class="cls-5" d="M343.65,763.34v5.47h9.58v3.84h-9.58v7.54h-4.79v-20.7h15.64v3.84h-10.85Z"/>
  <path class="cls-5" d="M356.57,759.5c0-1.45,1.15-2.57,2.87-2.57s2.87,1.06,2.87,2.48c0,1.54-1.15,2.66-2.87,2.66s-2.87-1.12-2.87-2.57ZM357.13,764.29h4.61v15.91h-4.61v-15.91Z"/>
  <path class="cls-5" d="M376.29,779.43c-.95.68-2.34,1.01-3.76,1.01-3.76,0-5.94-1.92-5.94-5.71v-6.53h-2.45v-3.55h2.45v-3.87h4.61v3.87h3.96v3.55h-3.96v6.48c0,1.36.74,2.1,1.98,2.1.68,0,1.36-.21,1.86-.59l1.24,3.25Z"/>
  <path class="cls-3" d="M260.36,750.11c1.59,1.4,3,3.03,4.22,4.76-.13.16-.34.22-.53.25-.77.14-5.55.15-6.25-.02-.47-.11-2-1.57-2.56-1.97-15.38-10.89-35.71,4.3-29.59,22.13,1,2.91,2.76,5.14,4.57,7.52l-.05,6.49-.22.23c-5.25-3.61-9.14-9.28-10.42-15.57-4.74-23.29,22.98-39.52,40.84-23.83Z"/>
  <path class="cls-5" d="M241.19,793.58c-.28,0-.56.02-.83-.01-.91-.09-2.5-.42-3.37-.7-.44-.14-1.21-.36-1.31-.84l-.03-19.76c-.03-.3.11-.51.35-.67l21.31.04c.3.24.06,1-.03,1.34-.19.68-1.69,4.01-2.26,4.18l-13.59.08c-.05.02-.23.2-.23.22v16.11Z"/>
  <path class="cls-5" d="M236.02,760.66c-.09.04-.35.24-.37.31v5.03l21.8.18v-5.58l-21.43.06Z"/>
  <path class="cls-3" d="M268.08,763.83c-.14-.67-.49-2.17-.75-2.75-.17-.38-.44-.51-.85-.51l-9.03.03v5.58l5.3.04c.89,4.83-.57,10.06-3.4,14.01-3,4.17-7.67,6.99-12.74,7.83-.33.2-.19.38-.19.6v4.92c8.17-.67,15.64-6.02,19.37-13.24,2.6-5.04,3.43-10.93,2.3-16.51Z"/>
  <g class="cls-2">
    <path class="cls-3" d="M73.67,463.73h2.58v4.95c-1.34,1.01-3.19,1.55-4.93,1.55-3.83,0-6.66-2.63-6.66-6.31s2.82-6.31,6.71-6.31c2.14,0,3.92.73,5.11,2.11l-1.81,1.67c-.89-.94-1.92-1.38-3.16-1.38-2.37,0-3.99,1.59-3.99,3.9s1.62,3.9,3.96,3.9c.77,0,1.48-.14,2.2-.52v-3.57Z"/>
    <path class="cls-3" d="M88.12,460.64v9.38h-2.58v-1.12c-.71.82-1.76,1.26-2.91,1.26-2.35,0-4.01-1.33-4.01-4.22v-5.3h2.72v4.9c0,1.57.7,2.27,1.9,2.27s2.16-.8,2.16-2.53v-4.64h2.72Z"/>
    <path class="cls-3" d="M90.65,457.09h2.72v12.93h-2.72v-12.93Z"/>
    <path class="cls-3" d="M95.57,457.82c0-.85.68-1.52,1.69-1.52s1.69.63,1.69,1.46c0,.91-.68,1.57-1.69,1.57s-1.69-.66-1.69-1.52ZM95.9,460.64h2.72v9.38h-2.72v-9.38Z"/>
    <path class="cls-3" d="M104.16,460.08v3.23h5.65v2.27h-5.65v4.45h-2.82v-12.2h9.22v2.27h-6.4Z"/>
    <path class="cls-3" d="M111.78,457.82c0-.85.68-1.52,1.69-1.52s1.69.63,1.69,1.46c0,.91-.68,1.57-1.69,1.57s-1.69-.66-1.69-1.52ZM112.11,460.64h2.72v9.38h-2.72v-9.38Z"/>
    <path class="cls-3" d="M123.4,469.57c-.56.4-1.38.59-2.21.59-2.21,0-3.5-1.13-3.5-3.36v-3.85h-1.45v-2.09h1.45v-2.28h2.72v2.28h2.34v2.09h-2.34v3.82c0,.8.44,1.24,1.17,1.24.4,0,.8-.12,1.1-.35l.73,1.92Z"/>
    <path class="cls-3" d="M55.06,452.28c.94.83,1.77,1.79,2.49,2.81-.08.09-.2.13-.31.15-.46.08-3.27.09-3.69-.01-.28-.07-1.18-.93-1.51-1.16-9.07-6.42-21.05,2.54-17.44,13.05.59,1.72,1.63,3.03,2.69,4.44l-.03,3.83-.13.13c-3.09-2.13-5.39-5.47-6.15-9.18-2.79-13.73,13.55-23.3,24.08-14.05Z"/>
    <path class="cls-3" d="M43.75,477.91c-.16,0-.33,0-.49,0-.53-.06-1.47-.25-1.99-.41-.26-.08-.71-.21-.77-.5l-.02-11.65c-.02-.18.06-.3.21-.39l12.56.03c.18.14.04.59-.02.79-.11.4-1,2.37-1.33,2.46l-8.01.05s-.13.12-.13.13v9.5Z"/>
    <path class="cls-3" d="M40.71,458.51c-.05.02-.21.14-.22.18v2.97l12.85.1v-3.29l-12.64.04Z"/>
    <path class="cls-3" d="M59.61,460.37c-.08-.4-.29-1.28-.44-1.62-.1-.22-.26-.3-.5-.3l-5.32.02v3.29l3.12.03c.53,2.85-.34,5.93-2.01,8.26-1.77,2.46-4.52,4.12-7.51,4.61-.19.12-.11.22-.11.36v2.9c4.81-.39,9.22-3.55,11.42-7.8,1.53-2.97,2.02-6.44,1.36-9.74Z"/>
  </g>
</svg>