<?xml version="1.0" encoding="UTF-8"?>
<svg id="Calque_1" data-name="Calque 1" xmlns="http://www.w3.org/2000/svg" xmlns:xlink="http://www.w3.org/1999/xlink" viewBox="0 0 56 67">
  <defs>
    <style>
      .cls-1 {
        fill: none;
      }

      .cls-2 {
        fill: #44b491;
      }

      .cls-3 {
        clip-path: url(#clippath);
      }
    </style>
    <clipPath id="clippath">
      <rect class="cls-1" width="56" height="67"/>
    </clipPath>
  </defs>
  <g class="cls-3">
    <g id="Groupe_106" data-name="Groupe 106">
      <path id="Tracé_78" data-name="Tracé 78" class="cls-2" d="M29.81,0h-4.62c-6.36-.02-11.53,5.11-11.55,11.47,0,.03,0,.05,0,.08v3.67c-.01.76.35,1.47.97,1.9l4.63,3.25c.57.39,1.28.51,1.94.33,4.14-1.13,8.52-1.13,12.66,0,.19.06.4.09.6.09.48,0,.94-.14,1.34-.42l4.62-3.26c.62-.43.98-1.14.97-1.9v-3.67c0-6.38-5.18-11.55-11.56-11.55ZM36.74,12.02c-6.04-1.76-12.45-1.76-18.48,0v-.46c0-3.82,3.11-6.92,6.93-6.93h4.62c3.82.01,6.92,3.11,6.93,6.93v.46Z"/>
      <path id="Tracé_79" data-name="Tracé 79" class="cls-2" d="M54.38,51.12c-.24-4.02-3.07-7.42-6.98-8.39l-11.81-2.96v-5.44c3.62-2.6,5.77-6.78,5.78-11.24,0-1.28-1.03-2.31-2.31-2.31s-2.31,1.03-2.31,2.31c0,5.1-4.14,9.24-9.24,9.24s-9.24-4.14-9.24-9.24c0-1.28-1.03-2.31-2.31-2.31s-2.31,1.03-2.31,2.31c0,4.46,2.15,8.64,5.78,11.24v5.44l-11.81,2.95c-3.91.97-6.74,4.37-6.98,8.39l-.84,13.42c-.08,1.27.89,2.37,2.16,2.45,0,0,0,0,0,0h.15c1.22,0,2.22-.95,2.3-2.17l.84-13.42c.12-2.01,1.53-3.71,3.49-4.19l9.18-2.3c1.58,2.95,5.16,5.7,7.29,7.15v3.38c0,1.28,1.03,2.31,2.31,2.31s2.31-1.03,2.31-2.31v-3.37c2.13-1.46,5.7-4.2,7.29-7.15l9.18,2.3c1.96.48,3.37,2.18,3.49,4.19l.84,13.42c.08,1.22,1.08,2.16,2.3,2.17.05,0,.1,0,.15,0,1.27-.08,2.24-1.18,2.16-2.45l-.83-13.42ZM27.5,48.05c-1.94-1.31-3.68-2.89-5.17-4.69,1.08-.87,1.71-2.18,1.71-3.57v-3.27c2.27.61,4.66.61,6.93,0v3.27c0,1.39.63,2.7,1.71,3.57-1.49,1.8-3.24,3.38-5.17,4.69"/>
      <path id="Tracé_80" data-name="Tracé 80" class="cls-2" d="M34.43,62.38l-4.66,1.55c-.22,1.9-1.94,3.25-3.84,3.03-1.9-.22-3.25-1.94-3.03-3.84.21-1.74,1.69-3.06,3.44-3.05h8.09v2.31Z"/>
    </g>
  </g>
</svg>