<?xml version="1.0" encoding="UTF-8"?>
<svg id="Calque_1" data-name="Calque 1" xmlns="http://www.w3.org/2000/svg" xmlns:xlink="http://www.w3.org/1999/xlink" viewBox="0 0 41.89 48.43">
  <defs>
    <style>
      .cls-1 {
        fill: none;
      }

      .cls-2 {
        fill: #44b491;
      }

      .cls-3 {
        clip-path: url(#clippath);
      }
    </style>
    <clipPath id="clippath">
      <rect class="cls-1" width="41.89" height="48.43"/>
    </clipPath>
  </defs>
  <g class="cls-3">
    <g id="Groupe_102" data-name="Groupe 102">
      <path id="Tracé_75" data-name="Tracé 75" class="cls-2" d="M38.28,14.43c.44.45,1.16.46,1.62.02,0,0,.01-.01.02-.02l1.63-1.63c.45-.44.46-1.16.02-1.62,0,0-.01-.01-.02-.02l-3.69-3.69c-.44-.45-1.16-.46-1.62-.02,0,0-.01.01-.02.02l-1.63,1.63c-.45.44-.46,1.16-.02,1.62,0,0,.01.01.02.02l.16.16-1.15,1.15c-2.95-2.35-6.51-3.83-10.25-4.27v-2.09h1.27c.63,0,1.15-.51,1.15-1.15V1.15c0-.63-.51-1.15-1.15-1.15h-7.33c-.63,0-1.15.51-1.15,1.15v3.39c0,.63.52,1.15,1.15,1.15h1.27v2.09c-3.75.44-7.3,1.92-10.25,4.27l-1.14-1.15.16-.16c.45-.44.46-1.16.02-1.62,0,0-.01-.01-.02-.02l-1.63-1.63c-.44-.45-1.16-.46-1.62-.02,0,0-.01.01-.02.02L.34,11.16c-.45.44-.46,1.16-.02,1.62,0,0,.01.01.02.02l1.63,1.63c.44.45,1.16.46,1.62.02,0,0,.01-.01.02-.02l.16-.16,1.15,1.15c-6.97,8.86-5.44,21.68,3.41,28.65,8.86,6.97,21.68,5.44,28.65-3.41,5.83-7.4,5.83-17.84,0-25.24l1.15-1.15.15.16ZM20.94,43.71c-8.66,0-15.67-7.02-15.67-15.67,0-8.66,7.02-15.67,15.67-15.67s15.67,7.02,15.67,15.67c-.01,8.65-7.02,15.66-15.67,15.67"/>
      <path id="Tracé_76" data-name="Tracé 76" class="cls-2" d="M30.79,22.21c-.33-.57-1.04-.78-1.63-.49l-7.06,3.46c-.9-.37-1.92-.29-2.77.2-1.48.87-1.98,2.77-1.11,4.25s2.77,1.98,4.25,1.11c.84-.5,1.41-1.36,1.51-2.33l6.43-4.53c.55-.37.71-1.1.37-1.67M22.25,28.38c-.19.73-.93,1.17-1.66.98-.73-.19-1.17-.93-.98-1.66.19-.73.93-1.17,1.66-.98,0,0,0,0,0,0,.72.19,1.16.93.98,1.66"/>
    </g>
  </g>
</svg>