<?xml version="1.0" encoding="UTF-8"?>
<svg id="Calque_1" data-name="Calque 1" xmlns="http://www.w3.org/2000/svg" viewBox="0 0 79.64 57.76">
  <defs>
    <style>
      .cls-1 {
        fill: #44b491;
      }
    </style>
  </defs>
  <path class="cls-1" d="M79.64,13.74c0,1.96-.28,7.29-1.12,16.26h-1.12v27.76h-3.93v-27.76h-.56V0c5.05.84,6.73,7.57,6.73,13.74ZM69.54,28.88c0,25.24-30.28,37.57-48.23,19.91C3.65,30.84,16.26.56,41.5.56c15.42,0,28.04,12.62,28.04,28.32ZM13.46,15.14c0,4.77-4.77,5.05-4.77,7.85v34.77h-3.93V22.99c0-2.8-4.77-3.08-4.77-7.85C0,9.81,1.12,4.77,3.36,0v12.9h2.24V0h2.24v12.9h1.96V0c2.52,4.77,3.65,9.81,3.65,15.14ZM61.97,28.88c0-18.51-22.15-27.48-35.05-14.58-12.9,12.9-3.93,35.05,14.3,35.05,11.5,0,20.75-9.25,20.75-20.47ZM59.73,28.88c0,24.4-36.73,24.4-36.73,0,0-16.54,19.91-24.68,31.41-13.18,3.65,3.65,5.33,8.13,5.33,13.18Z"/>
</svg>