<?xml version="1.0" encoding="UTF-8"?>
<svg id="Calque_1" xmlns="http://www.w3.org/2000/svg" viewBox="0 0 260.15 203.17">
  <defs>
    <style>
      .cls-1 {
        fill: #45b390;
      }

      .cls-2 {
        fill: #0f447f;
      }
    </style>
  </defs>
  <path class="cls-2" d="M39.91,174.38h11.43v21.92c-5.94,4.48-14.13,6.87-21.85,6.87-16.98,0-29.49-11.66-29.49-27.95s12.51-27.95,29.72-27.95c9.5,0,17.37,3.24,22.62,9.34l-8.03,7.41c-3.94-4.17-8.49-6.1-13.97-6.1-10.5,0-17.68,7.03-17.68,17.29s7.18,17.29,17.53,17.29c3.4,0,6.56-.62,9.73-2.32v-15.83Z"/>
  <path class="cls-2" d="M103.91,160.71v41.53h-11.43v-4.94c-3.16,3.63-7.8,5.56-12.89,5.56-10.42,0-17.76-5.87-17.76-18.68v-23.47h12.04v21.69c0,6.95,3.09,10.04,8.42,10.04s9.57-3.55,9.57-11.19v-20.54h12.04Z"/>
  <path class="cls-2" d="M115.1,144.96h12.04v57.28h-12.04v-57.28Z"/>
  <path class="cls-2" d="M136.87,148.21c0-3.78,3.01-6.72,7.49-6.72s7.49,2.78,7.49,6.48c0,4.02-3.01,6.95-7.49,6.95s-7.49-2.93-7.49-6.72ZM138.34,160.71h12.04v41.53h-12.04v-41.53Z"/>
  <path class="cls-1" d="M174.93,158.24v14.28h25.01v10.04h-25.01v19.69h-12.51v-54.04h40.84v10.04h-28.33Z"/>
  <path class="cls-1" d="M208.66,148.21c0-3.78,3.01-6.72,7.49-6.72s7.49,2.78,7.49,6.48c0,4.02-3.01,6.95-7.49,6.95s-7.49-2.93-7.49-6.72ZM210.13,160.71h12.04v41.53h-12.04v-41.53Z"/>
  <path class="cls-1" d="M260.15,200.24c-2.47,1.77-6.1,2.62-9.8,2.62-9.8,0-15.52-5.02-15.52-14.9v-17.06h-6.41v-9.27h6.41v-10.11h12.04v10.11h10.35v9.27h-10.35v16.91c0,3.55,1.93,5.48,5.17,5.48,1.78,0,3.55-.54,4.86-1.54l3.24,8.49Z"/>
  <path class="cls-2" d="M178,16.24c4.16,3.66,7.82,7.91,11.02,12.43-.34.42-.89.58-1.39.66-2.02.36-14.49.38-16.33-.05-1.22-.29-5.21-4.1-6.67-5.13-40.17-28.43-93.23,11.23-77.25,57.78,2.61,7.6,7.2,13.43,11.93,19.65l-.14,16.95-.59.59c-13.7-9.43-23.88-24.23-27.21-40.65-12.36-60.8,60.01-103.18,106.63-62.22Z"/>
  <path class="cls-1" d="M127.94,129.73c-.72,0-1.45.04-2.18-.04-2.37-.25-6.53-1.1-8.81-1.82-1.15-.36-3.15-.94-3.41-2.2l-.08-51.6c-.08-.79.29-1.33.91-1.75l55.65.11c.79.62.16,2.62-.09,3.51-.49,1.78-4.41,10.48-5.9,10.92l-35.49.21c-.14.07-.59.53-.59.59v42.05Z"/>
  <path class="cls-1" d="M114.44,43.79c-.23.1-.91.64-.96.81v13.13l56.93.46v-14.57l-55.96.17Z"/>
  <path class="cls-2" d="M198.16,52.06c-.36-1.75-1.27-5.67-1.96-7.18-.45-.99-1.14-1.34-2.22-1.32l-23.57.07v14.58l13.83.11c2.33,12.61-1.5,26.28-8.89,36.57-7.82,10.9-20.02,18.24-33.27,20.44-.85.51-.49.98-.49,1.58v12.84c21.32-1.75,40.85-15.71,50.57-34.56,6.79-13.16,8.96-28.54,6-43.11Z"/>
</svg>