<?xml version="1.0" encoding="UTF-8"?>
<svg id="Calque_1" data-name="Calque 1" xmlns="http://www.w3.org/2000/svg" viewBox="0 0 157.31 49.69">
  <defs>
    <style>
      .cls-1 {
        fill: #fff;
      }

      .cls-2 {
        fill: #0e447e;
      }
    </style>
  </defs>
  <path class="cls-1" d="M72.95,25.63h4.38v8.4c-2.28,1.72-5.41,2.63-8.37,2.63-6.5,0-11.3-4.46-11.3-10.7s4.79-10.7,11.38-10.7c3.64,0,6.65,1.24,8.66,3.58l-3.08,2.84c-1.51-1.6-3.25-2.34-5.35-2.34-4.02,0-6.77,2.69-6.77,6.62s2.75,6.62,6.71,6.62c1.3,0,2.51-.24,3.73-.89v-6.06Z"/>
  <path class="cls-1" d="M97.47,20.4v15.91h-4.38v-1.89c-1.21,1.39-2.99,2.13-4.94,2.13-3.99,0-6.8-2.25-6.8-7.16v-8.99h4.61v8.31c0,2.66,1.18,3.84,3.22,3.84s3.67-1.36,3.67-4.29v-7.87h4.61Z"/>
  <path class="cls-1" d="M101.75,14.36h4.61v21.94h-4.61V14.36Z"/>
  <path class="cls-1" d="M110.09,15.61c0-1.45,1.15-2.57,2.87-2.57s2.87,1.06,2.87,2.48c0,1.54-1.15,2.66-2.87,2.66s-2.87-1.12-2.87-2.57ZM110.65,20.4h4.61v15.91h-4.61v-15.91Z"/>
  <path class="cls-2" d="M124.67,19.45v5.47h9.58v3.84h-9.58v7.54h-4.79V15.61h15.64v3.84h-10.85Z"/>
  <path class="cls-2" d="M137.59,15.61c0-1.45,1.15-2.57,2.87-2.57s2.87,1.06,2.87,2.48c0,1.54-1.15,2.66-2.87,2.66s-2.87-1.12-2.87-2.57ZM138.15,20.4h4.61v15.91h-4.61v-15.91Z"/>
  <path class="cls-2" d="M157.31,35.54c-.95.68-2.34,1.01-3.76,1.01-3.76,0-5.94-1.92-5.94-5.71v-6.53h-2.45v-3.55h2.45v-3.87h4.61v3.87h3.96v3.55h-3.96v6.48c0,1.36.74,2.1,1.98,2.1.68,0,1.36-.21,1.86-.59l1.24,3.25Z"/>
  <path class="cls-1" d="M41.38,6.22c1.59,1.4,3,3.03,4.22,4.76-.13.16-.34.22-.53.25-.77.14-5.55.15-6.25-.02-.47-.11-2-1.57-2.56-1.97C20.87-1.64.55,13.55,6.67,31.38c1,2.91,2.76,5.14,4.57,7.52l-.05,6.49-.22.23c-5.25-3.61-9.14-9.28-10.42-15.57C-4.2,6.76,23.52-9.47,41.38,6.22Z"/>
  <path class="cls-2" d="M22.21,49.69c-.28,0-.56.02-.83-.01-.91-.09-2.5-.42-3.37-.7-.44-.14-1.21-.36-1.31-.84l-.03-19.76c-.03-.3.11-.51.35-.67l21.31.04c.3.24.06,1-.03,1.34-.19.68-1.69,4.01-2.26,4.18l-13.59.08c-.05.02-.23.2-.23.22v16.11Z"/>
  <path class="cls-2" d="M17.04,16.77c-.09.04-.35.24-.37.31v5.03l21.8.18v-5.58l-21.43.06Z"/>
  <path class="cls-1" d="M49.1,19.94c-.14-.67-.49-2.17-.75-2.75-.17-.38-.44-.51-.85-.51l-9.03.03v5.58l5.3.04c.89,4.83-.57,10.06-3.4,14.01-3,4.17-7.67,6.99-12.74,7.83-.33.2-.19.38-.19.6v4.92c8.17-.67,15.64-6.02,19.37-13.24,2.6-5.04,3.43-10.93,2.3-16.51Z"/>
</svg>